<?xml version="1.0" standalone="no"?>
<!DOCTYPE svg PUBLIC "-//W3C//DTD SVG 20010904//EN"
 "http://www.w3.org/TR/2001/REC-SVG-20010904/DTD/svg10.dtd">
<svg version="1.0" xmlns="http://www.w3.org/2000/svg"
 width="50.000000pt" height="50.000000pt" viewBox="0 0 50.000000 50.000000"
 preserveAspectRatio="xMidYMid meet">
<metadata>
Created by potrace 1.16, written by Peter Selinger 2001-2019
</metadata>
<g transform="translate(0.000000,50.000000) scale(0.007874,-0.008913)"
fill="#000000" stroke="none">
<path d="M105 5592 c17 -10 92 -53 168 -96 75 -43 139 -82 142 -86 2 -4 -13
-43 -34 -86 -33 -70 -39 -76 -45 -55 -6 15 -60 57 -167 127 -87 57 -161 104
-164 104 -3 0 -5 -12 -4 -27 0 -25 18 -39 145 -122 79 -51 144 -98 144 -103 0
-12 -2 -11 -145 87 -157 107 -145 101 -145 71 0 -22 21 -40 136 -116 74 -50
133 -97 131 -103 -2 -7 -16 -12 -32 -12 -37 0 -43 -20 -12 -40 22 -14 24 -19
14 -45 -6 -17 -17 -30 -23 -30 -7 0 -52 26 -100 58 -49 32 -95 61 -101 66 -9
5 -13 -1 -13 -18 0 -20 15 -35 76 -76 41 -29 89 -56 105 -62 16 -5 29 -14 29
-20 0 -15 -71 -138 -79 -138 -4 0 -32 13 -62 30 -30 16 -57 30 -61 30 -5 0 -8
-17 -8 -38 0 -36 3 -40 40 -57 22 -10 44 -23 49 -29 6 -7 -9 -42 -40 -96 -44
-77 -48 -91 -49 -149 0 -61 1 -63 18 -48 17 15 28 13 173 -40 183 -66 217 -75
240 -62 13 6 45 -1 116 -26 111 -40 133 -43 133 -17 0 13 -23 26 -97 51 -54
19 -100 35 -101 37 -7 5 51 105 58 102 48 -19 489 -265 487 -272 -2 -5 -21
-22 -44 -38 l-41 -30 -51 17 c-28 9 -55 13 -61 10 -21 -13 -5 -38 30 -50 l34
-12 -91 -61 c-51 -34 -96 -62 -101 -62 -5 0 -90 34 -188 76 -98 41 -222 92
-274 112 -52 20 -96 40 -98 44 -2 4 -13 8 -23 8 -11 0 -32 6 -47 14 -15 7 -37
17 -50 21 -21 6 -23 4 -20 -22 3 -26 12 -31 163 -89 145 -55 475 -191 483
-199 9 -9 -109 -77 -125 -72 -10 3 -128 46 -262 96 -134 50 -248 91 -252 91
-5 0 -9 -10 -9 -23 0 -22 21 -31 240 -112 132 -48 237 -91 235 -96 -3 -4 -111
-79 -240 -165 -214 -144 -235 -160 -235 -186 l0 -28 40 26 c36 24 42 25 58 12
9 -9 41 -23 70 -33 49 -16 52 -18 52 -51 0 -41 27 -48 35 -9 3 14 7 36 10 50
5 21 10 24 29 19 28 -7 43 11 26 31 -16 19 -64 19 -79 1 -10 -12 -19 -12 -59
1 -26 9 -51 19 -55 23 -5 4 115 90 265 190 185 125 274 179 276 169 1 -8 -13
-57 -32 -109 -39 -109 -224 -551 -234 -562 -4 -4 -96 21 -205 56 l-197 63 0
-26 c1 -25 8 -28 186 -86 102 -33 188 -63 190 -66 3 -6 -42 -145 -52 -157 -1
-2 -69 24 -151 58 -81 34 -154 65 -161 68 -10 3 -13 -3 -10 -23 3 -24 15 -32
133 -81 72 -30 140 -58 153 -64 l22 -10 -19 -51 c-11 -28 -22 -53 -24 -55 -2
-2 -63 16 -136 41 l-132 44 3 -62 c3 -60 4 -62 35 -71 18 -5 33 -12 33 -16 0
-4 -16 -51 -35 -104 -29 -80 -35 -111 -35 -175 l0 -77 50 -18 c41 -15 50 -22
45 -37 -3 -11 -8 -29 -11 -41 -4 -13 -24 -53 -45 -89 -36 -60 -39 -71 -39
-140 l0 -74 74 124 c41 68 80 143 86 168 7 24 18 42 24 40 6 -2 48 -16 94 -31
79 -27 96 -39 69 -49 -7 -3 -5 -6 6 -6 9 -1 17 4 17 9 0 15 30 12 98 -11 42
-14 62 -26 62 -37 0 -13 2 -14 8 -4 6 9 16 10 40 1 18 -6 32 -15 32 -20 0 -4
6 -6 13 -3 8 3 25 0 40 -5 l25 -10 -14 -60 c-7 -33 -22 -76 -32 -95 l-19 -35
-39 37 -39 37 39 -42 39 -42 -50 -113 c-28 -62 -58 -130 -66 -150 -19 -45 -9
-46 -227 27 -124 41 -179 55 -222 55 l-58 0 0 -94 0 -93 198 -68 c108 -38 199
-70 201 -71 2 -2 -20 -55 -49 -117 l-53 -114 -142 68 c-78 38 -145 69 -149 69
-3 0 -6 -10 -6 -23 0 -19 12 -29 61 -52 33 -16 63 -33 65 -37 8 -13 -38 -98
-67 -122 -16 -14 -29 -29 -29 -35 0 -22 30 -10 66 25 32 32 37 35 51 22 13
-14 12 -20 -6 -56 -24 -47 -27 -72 -8 -72 7 0 25 28 40 62 l28 63 -30 25 c-28
24 -29 38 -6 68 6 7 105 -49 105 -58 0 -18 -90 -190 -99 -190 -4 0 -42 16 -84
35 -42 19 -78 35 -81 35 -3 0 -6 -9 -6 -20 0 -11 4 -20 10 -20 5 0 41 -14 80
-31 l70 -32 -46 -86 c-25 -47 -49 -90 -53 -94 -4 -4 -19 -3 -34 2 l-26 10 0
-141 c-1 -78 1 -140 3 -137 2 2 21 46 41 97 25 62 42 92 50 88 7 -2 92 -26
188 -51 l174 -47 -24 -96 c-23 -91 -45 -145 -75 -185 -13 -18 -21 -16 -175 22
-89 23 -167 41 -173 41 -5 0 -10 -9 -10 -20 0 -21 -9 -18 200 -70 69 -17 126
-33 128 -35 2 -2 0 -19 -3 -39 -5 -24 -13 -36 -24 -36 -9 0 -80 17 -159 39
l-142 38 0 -26 c0 -25 5 -27 112 -55 205 -53 318 -89 318 -101 0 -6 -7 -34
-15 -61 -8 -27 -15 -61 -15 -76 0 -23 4 -28 26 -28 20 0 25 4 20 16 -7 18 24
144 36 144 9 0 240 -64 296 -81 28 -9 32 -15 32 -45 l0 -34 50 0 51 0 -6 48
c-7 58 -24 526 -19 531 3 4 186 -18 191 -23 1 -1 7 -56 12 -122 5 -65 15 -136
21 -156 6 -21 47 -92 90 -158 67 -100 84 -120 105 -120 14 0 25 3 25 6 0 4
-38 64 -84 134 -91 139 -101 166 -112 319 l-6 94 23 -6 c13 -4 92 -16 174 -28
83 -11 151 -22 151 -22 1 -1 -3 -30 -9 -65 -5 -34 -7 -65 -4 -68 16 -17 35 10
46 65 8 43 17 61 27 61 13 0 15 -9 10 -48 -3 -26 -13 -117 -21 -202 -8 -85
-17 -173 -20 -196 l-6 -40 138 -2 138 -1 -65 19 c-36 11 -84 22 -107 26 -51 8
-50 0 -28 204 8 74 15 138 15 142 0 3 33 -2 73 -13 93 -24 130 -25 125 -2 -2
12 -29 23 -99 41 -91 22 -96 25 -91 48 l4 24 147 0 c135 0 268 -14 474 -50 56
-10 67 -15 63 -29 -4 -11 -2 -11 9 3 15 20 15 20 15 0 0 -13 3 -15 8 -7 6 10
48 5 180 -21 95 -19 175 -36 178 -39 3 -3 -17 -81 -44 -173 l-49 -169 54 -3
c31 -2 58 -1 61 2 3 3 5 28 6 56 1 49 2 51 26 45 33 -9 33 -8 21 -52 -15 -52
-14 -53 13 -53 20 0 26 7 33 38 5 22 15 37 23 37 16 0 16 -4 6 -48 -6 -26 -5
-27 36 -27 28 0 38 3 29 9 -9 6 -11 20 -6 49 6 38 5 42 -24 56 -16 9 -47 15
-68 15 -48 -2 -97 17 -90 34 3 7 15 49 27 92 12 44 23 81 25 83 3 3 246 -18
261 -23 8 -2 1 -51 -22 -152 -18 -81 -34 -151 -34 -155 0 -5 9 -8 20 -8 21 0
24 7 60 175 30 139 28 135 55 135 13 0 26 -4 29 -8 3 -5 -4 -48 -14 -96 -20
-90 -19 -106 5 -106 16 0 18 6 41 118 l18 84 35 -7 c20 -4 38 -8 40 -11 2 -2
-12 -66 -31 -144 l-36 -140 23 0 c22 0 26 10 56 137 17 76 34 141 38 145 4 4
20 4 36 0 53 -15 55 -63 8 -260 -5 -23 -5 -23 87 -20 l93 3 21 80 c12 44 32
101 45 128 21 44 25 47 62 47 21 0 39 -3 39 -6 0 -3 -13 -59 -30 -124 -16 -65
-30 -121 -30 -124 0 -3 11 -6 24 -6 21 0 26 10 56 125 l33 125 44 0 c28 0 46
-5 49 -14 3 -7 -6 -59 -20 -114 -32 -123 -32 -122 -2 -122 22 0 26 8 53 118
l28 117 75 -4 c41 -2 76 -4 77 -5 1 0 -10 -48 -23 -106 -29 -129 -29 -120 0
-120 22 0 25 8 45 98 12 53 24 103 27 111 3 11 19 12 72 7 37 -4 71 -11 75
-15 5 -5 15 -35 23 -67 36 -141 33 -134 59 -134 14 0 25 1 25 3 0 1 -11 45
-25 97 -13 52 -23 96 -21 97 2 2 53 0 115 -3 127 -8 121 0 96 -114 -8 -36 -14
-68 -15 -72 0 -13 68 -9 72 3 3 9 9 9 25 0 12 -6 48 -11 80 -10 l58 0 -74 35
-73 34 7 47 c4 27 9 50 11 52 11 11 281 -74 349 -110 44 -24 84 -39 95 -36 10
3 27 -1 37 -9 11 -8 44 -13 80 -14 l63 0 -11 26 c-5 15 -8 28 -7 29 2 1 39 11
83 22 66 17 94 19 160 13 44 -5 83 -9 87 -9 4 -1 -1 -16 -12 -33 -26 -42 -25
-48 4 -48 17 0 30 11 45 36 22 36 22 36 74 30 28 -4 53 -9 56 -11 2 -3 -4 -15
-12 -29 l-17 -25 72 0 71 0 -28 29 -28 29 24 9 c79 31 115 52 247 150 81 59
153 112 160 116 12 7 102 -41 102 -55 0 -3 -16 -20 -35 -39 -35 -34 -47 -70
-22 -70 6 0 33 21 59 46 42 39 48 50 48 86 0 33 -3 39 -16 34 -9 -3 -29 3 -46
15 l-30 22 46 28 46 29 0 105 0 105 -77 -48 c-43 -27 -100 -63 -127 -80 -45
-29 -50 -30 -71 -16 -20 13 -22 18 -12 43 10 28 11 28 43 15 19 -8 40 -14 48
-14 9 0 42 53 81 131 l67 131 23 -38 24 -39 -1 68 c-1 37 -5 67 -10 67 -5 0
-4 9 2 19 11 22 9 221 -2 221 -5 0 -8 11 -8 25 0 14 5 25 10 25 14 0 12 27 -2
33 -10 4 -10 7 -1 18 13 12 19 99 8 99 -3 0 -29 -16 -58 -35 -28 -19 -55 -31
-59 -27 -4 4 -35 74 -67 155 l-60 147 32 13 c18 8 74 31 125 52 l92 38 0 69
c0 83 33 88 -265 -37 -121 -50 -221 -91 -223 -89 -2 1 4 40 12 86 21 112 21
140 -1 136 -13 -2 -22 -29 -38 -121 -12 -65 -26 -121 -31 -126 -11 -11 -157
-72 -161 -68 -2 3 60 367 72 415 l5 22 315 0 315 0 0 25 0 25 -114 0 c-67 0
-117 4 -121 10 -3 6 -3 19 0 30 6 18 15 20 121 20 107 0 114 1 114 20 0 19 -7
20 -122 21 l-123 0 -73 87 -73 87 195 3 196 2 0 75 c0 59 -6 90 -32 155 l-31
81 31 32 c23 24 32 42 32 66 l0 33 -64 -58 c-35 -33 -91 -74 -125 -92 l-62
-33 6 28 5 28 -11 -25 c-7 -14 -13 -29 -13 -33 -1 -5 -46 -35 -101 -67 -80
-48 -101 -56 -108 -45 -6 11 42 88 158 260 l166 245 75 0 c67 0 74 2 74 20 0
20 -17 27 -78 32 l-32 3 55 82 c52 78 55 86 55 144 l0 62 -41 -57 c-28 -39
-45 -54 -52 -48 -7 5 -99 70 -204 146 -106 75 -193 141 -193 146 0 5 5 20 11
34 11 24 14 25 138 28 123 3 127 2 156 -23 24 -21 94 -67 173 -113 8 -5 12 1
12 21 0 24 -10 35 -72 73 -66 41 -70 45 -48 51 14 4 46 7 73 8 l47 1 0 36 0
37 -82 -7 -83 -6 40 24 c22 14 59 36 83 50 32 19 42 32 42 51 0 14 -2 25 -5
25 -15 0 -224 -132 -228 -145 -4 -8 -13 -15 -21 -15 -18 0 -126 79 -126 91 0
5 30 69 67 143 l67 134 118 -59 c65 -32 120 -59 123 -59 3 0 5 11 5 25 0 22
-14 32 -102 76 -57 28 -105 53 -107 55 -4 4 16 32 57 79 l34 38 52 -52 c28
-28 55 -51 59 -51 4 0 7 12 7 27 0 19 -14 42 -46 74 l-45 46 31 27 c17 14 38
26 46 26 8 0 14 10 14 26 0 24 -2 25 -32 19 -18 -4 -38 -11 -43 -16 -6 -4 -33
-11 -61 -14 -47 -7 -57 -4 -175 55 -68 34 -125 63 -126 64 -5 5 21 86 28 86 4
0 50 -20 101 -46 l93 -45 27 32 26 31 81 -61 81 -62 0 30 c0 23 -10 38 -42 64
-44 35 -253 189 -298 218 l-24 16 18 46 c10 26 21 47 26 47 5 0 71 -50 147
-111 171 -137 173 -138 173 -101 0 24 -20 44 -150 146 l-149 118 40 79 c21 43
41 79 43 79 2 0 36 -13 75 -30 40 -16 88 -32 107 -36 l34 -6 0 41 c0 34 -3 41
-19 41 -32 0 -156 57 -159 74 -4 21 -6 21 88 -19 45 -19 83 -35 85 -35 2 0 4
38 4 84 l0 84 -88 109 c-68 84 -87 113 -80 125 12 22 49 140 49 158 0 8 26 40
57 72 l57 58 -33 0 c-27 0 -47 -13 -114 -75 -45 -41 -86 -75 -92 -75 -6 0 -28
34 -50 75 -38 72 -41 75 -76 75 -32 0 -42 -7 -81 -52 -66 -78 -72 -92 -83
-214 l-10 -112 -80 33 c-44 18 -87 35 -97 38 -14 5 -11 22 28 149 24 79 44
146 44 151 0 4 -10 7 -23 7 -22 0 -27 -12 -67 -140 -35 -114 -47 -140 -59
-135 -9 3 -87 36 -174 72 l-159 67 7 54 c4 31 9 61 12 69 4 11 -3 14 -33 11
-37 -3 -39 -5 -46 -47 -4 -24 -10 -46 -13 -49 -2 -3 -60 18 -127 47 -120 50
-125 51 -218 51 l-95 -1 60 -27 c89 -42 51 -47 -49 -7 -77 31 -95 35 -181 35
l-96 0 7 -210 7 -210 -61 0 c-34 0 -62 1 -62 3 0 5 70 372 75 395 5 18 1 22
-20 22 -28 0 -24 11 -60 -180 -14 -74 -30 -159 -36 -187 l-10 -53 -123 0 c-68
0 -144 3 -170 6 l-46 7 0 55 0 55 75 -7 c61 -6 75 -4 75 7 0 10 -23 16 -92 21
-53 3 -95 11 -99 18 -7 11 -5 62 6 206 3 40 0 52 -11 52 -8 0 -14 -6 -15 -12
0 -7 -4 -65 -8 -128 -9 -118 -3 -160 24 -160 12 0 15 -12 15 -56 l0 -56 -217
7 c-120 4 -226 9 -235 11 -15 5 -18 17 -18 73 l0 68 201 124 c198 123 200 124
160 127 -22 2 -49 -2 -60 -7 -13 -8 -28 -8 -46 -1 -14 5 -56 10 -93 9 l-67 0
55 -21 c30 -11 59 -24 63 -28 8 -7 -216 -153 -338 -219 l-60 -33 -125 52 c-69
29 -128 55 -133 59 -5 6 44 133 58 149 1 1 25 -8 54 -19 37 -16 55 -19 63 -11
5 5 7 15 4 21 -12 20 -98 51 -140 51 l-42 0 -58 -130 -58 -130 -44 0 c-49 0
-42 -13 -84 163 l-24 97 -68 0 c-37 0 -68 -1 -68 -2 0 -2 16 -63 34 -135 22
-87 30 -133 22 -133 -6 0 -114 -5 -239 -10 l-228 -9 -157 81 c-86 45 -159 83
-162 85 -3 3 2 10 11 16 15 11 69 91 69 102 0 10 -116 5 -127 -6 -8 -8 -17 -8
-31 0 -11 6 -51 11 -89 10 l-68 0 82 -32 c46 -18 83 -36 83 -41 0 -19 -85
-156 -95 -152 -294 113 -505 202 -501 213 4 10 -17 13 -97 13 l-102 0 335
-134 c184 -73 336 -138 338 -144 4 -13 -98 -192 -113 -198 -7 -3 -84 22 -171
55 -166 64 -208 73 -202 45 2 -11 60 -38 173 -81 93 -35 171 -66 173 -68 7 -6
-68 -135 -78 -135 -5 0 -124 50 -263 111 l-253 111 -52 197 c-29 108 -52 206
-52 219 l0 22 -161 -2 -162 -3 -31 -72 c-17 -40 -34 -73 -38 -73 -3 0 -65 34
-137 75 -112 65 -137 75 -178 75 l-48 0 30 -18z m578 -15 c26 -7 54 -20 61
-28 15 -15 110 -362 108 -394 0 -10 3 -24 7 -30 12 -13 104 -345 96 -345 -6 0
-637 239 -641 243 -4 4 124 257 131 257 1 0 35 -13 73 -30 80 -34 102 -37 102
-14 0 9 -29 29 -77 51 -43 19 -79 36 -80 37 -2 1 25 64 59 140 70 154 53 142
161 113z m3943 -48 c54 -23 102 -44 106 -48 4 -3 -11 -44 -33 -91 -22 -46 -39
-93 -37 -105 2 -15 34 -33 133 -77 72 -31 134 -59 140 -61 5 -2 -6 -27 -24
-56 -30 -46 -70 -172 -71 -223 0 -10 17 -27 40 -40 46 -26 47 -41 4 -115 -19
-32 -33 -44 -57 -48 -34 -7 -244 8 -253 18 -31 31 -85 887 -56 887 5 0 53 -18
108 -41z m1399 -39 l39 -80 -95 -97 c-51 -54 -100 -99 -106 -101 -9 -2 -11 6
-8 25 2 15 7 66 10 112 3 46 11 93 17 105 15 28 88 116 97 116 4 0 25 -36 46
-80z m-1012 -126 c45 -19 85 -39 90 -43 4 -4 -3 -46 -15 -94 -16 -62 -27 -87
-38 -86 -8 0 -91 33 -185 73 -129 55 -169 77 -167 89 1 9 19 50 38 91 l36 75
79 -35 c43 -19 116 -50 162 -70z m-3035 6 c75 -38 143 -73 150 -78 10 -7 6
-25 -21 -83 l-34 -75 -213 -12 c-117 -7 -214 -11 -216 -10 -1 2 33 66 77 143
90 158 107 185 114 185 3 0 67 -31 143 -70z m1114 -46 l110 -47 -104 -59 c-56
-33 -133 -80 -170 -104 l-66 -43 -7 26 c-5 20 8 57 51 150 32 68 62 123 67
123 5 0 59 -21 119 -46z m3144 -175 c58 -71 104 -132 101 -135 -4 -5 -364 142
-407 166 -11 6 5 28 70 94 l83 86 23 -40 c13 -22 71 -99 130 -171z m-2840 19
c-4 -84 -13 -314 -22 -511 -14 -327 -14 -364 1 -443 9 -48 14 -88 11 -91 -4
-4 -206 34 -212 40 -2 2 -6 39 -10 82 -4 52 0 123 10 202 34 254 17 376 -75
551 -33 63 -59 118 -57 123 4 12 329 198 347 199 11 0 12 -28 7 -152z m-717
85 c20 -84 21 -81 -11 -87 -17 -3 -47 -6 -68 -6 l-38 0 -5 58 c-2 31 -3 60 0
65 2 4 28 7 58 7 l54 0 10 -37z m2646 -19 c66 -26 123 -52 126 -57 3 -5 8 -7
10 -6 2 1 19 -2 37 -9 38 -13 36 19 17 -317 -19 -337 -34 -485 -51 -485 -22 0
-189 62 -192 71 -2 5 -7 7 -12 4 -9 -5 -337 108 -351 122 -5 5 3 23 20 44 30
36 101 194 101 224 0 9 20 67 44 129 24 62 56 157 70 212 35 129 34 127 49
121 6 -3 66 -26 132 -53z m-2815 -13 l0 -60 -52 -5 c-29 -3 -115 -8 -190 -12
l-138 -6 28 66 c15 36 34 67 42 70 8 2 81 4 163 5 l147 1 0 -59z m1414 -71
c187 -5 341 -12 343 -14 3 -2 -3 -54 -13 -115 -16 -100 -20 -111 -38 -111 -23
1 -136 26 -142 33 -2 2 -8 27 -14 56 -5 29 -12 56 -15 60 -7 12 -166 43 -200
39 -25 -2 -34 -12 -53 -51 l-23 -48 -99 7 c-84 6 -100 4 -105 -8 -4 -9 -14
-67 -23 -129 -20 -131 -33 -144 -84 -89 l-29 33 6 166 c4 91 8 172 11 179 3
10 20 12 71 7 38 -3 221 -10 407 -15z m530 -62 c2 -29 9 -105 15 -168 5 -63
21 -191 35 -285 23 -153 26 -200 26 -462 l0 -293 -34 0 c-49 0 -379 69 -391
82 -10 10 -3 10 68 -8 33 -8 45 11 63 103 l16 80 77 -18 c98 -24 111 -23 111
0 0 16 -14 22 -77 36 -43 9 -83 18 -89 20 -6 2 -15 36 -21 76 -8 63 -6 93 19
233 35 202 35 219 2 243 l-26 19 31 185 c18 101 34 190 36 197 3 8 26 12 69
12 l65 0 5 -52z m1388 -76 c4 -4 -9 -47 -29 -97 -19 -49 -37 -116 -40 -147 -8
-81 8 -101 97 -128 38 -11 70 -25 70 -31 0 -10 -67 -239 -96 -331 l-15 -47
-147 51 c-81 28 -150 54 -154 57 -4 3 -1 56 7 116 7 61 18 207 24 325 6 118
14 245 17 281 l6 67 126 -55 c70 -30 130 -57 134 -61z m-3116 53 c7 -27 11
-52 8 -55 -3 -3 -41 -7 -85 -9 -72 -3 -79 -1 -79 15 0 11 -3 36 -6 56 -6 35
-5 37 27 41 19 2 54 4 78 3 l45 -1 12 -50z m-1532 -60 c121 -53 223 -98 228
-101 7 -5 -20 -62 -42 -87 -4 -5 -82 27 -174 71 -91 44 -178 83 -194 87 -24 5
-30 13 -40 53 -6 26 -14 56 -18 66 -6 15 -4 18 7 14 8 -4 113 -50 233 -103z
m1324 49 l3 -52 -48 -6 c-26 -3 -114 -8 -194 -12 l-146 -6 -6 24 c-4 12 -7 38
-7 56 0 30 2 32 38 33 20 1 89 5 152 9 63 4 135 7 160 6 l45 -1 3 -51z m-444
-15 c4 -29 3 -55 -1 -59 -9 -8 -356 -30 -461 -30 l-63 0 28 51 c15 28 32 53
38 55 5 2 105 10 220 17 116 8 215 15 221 16 6 0 14 -22 18 -50z m976 -51 c32
-59 62 -132 72 -173 17 -72 22 -230 10 -320 l-7 -50 -53 -3 c-47 -3 -53 -1
-61 21 -8 20 -93 363 -130 519 -8 36 -8 37 43 72 28 19 56 35 61 35 6 1 35
-45 65 -101z m1959 91 c18 -6 30 -16 28 -23 -3 -6 -19 -47 -36 -92 -42 -110
-52 -121 -85 -106 -29 13 -32 31 -15 102 11 47 54 130 68 130 4 0 22 -5 40
-11z m-1128 -65 c28 -17 49 -24 65 -20 13 3 35 9 47 12 22 5 25 2 33 -48 l9
-53 90 -20 c74 -17 90 -24 93 -40 1 -11 -8 -81 -21 -155 l-23 -135 -29 3 c-17
2 -36 12 -44 23 -7 10 -20 19 -28 19 -8 0 -20 15 -28 33 -13 31 -19 34 -78 45
-35 7 -74 12 -86 12 -17 0 -21 6 -21 30 0 34 -7 39 -65 43 -51 3 -55 -21 -6
-38 48 -16 27 -25 -34 -15 -28 5 -82 14 -121 20 l-71 11 17 110 c9 60 20 112
23 116 4 3 46 1 94 -4 49 -6 92 -9 96 -6 4 2 15 22 24 44 8 21 17 39 19 39 3
0 23 -12 45 -26z m2121 -67 c43 -18 78 -35 78 -40 0 -4 -27 -61 -60 -127 l-60
-119 -67 23 -68 23 -3 41 c-4 57 66 245 88 237 8 -3 50 -20 92 -38z m-5307
-122 c143 -54 265 -102 271 -106 6 -5 19 -46 28 -92 9 -45 27 -119 38 -165 12
-45 18 -85 15 -88 -3 -3 -88 39 -189 93 -401 217 -657 358 -658 364 0 3 6 13
13 22 11 15 27 11 171 -43 167 -63 210 -72 204 -44 -2 11 -58 37 -173 80 -98
36 -169 67 -167 74 1 6 9 22 18 35 l16 24 76 -29 c42 -15 194 -72 337 -125z
m2015 128 c1 -19 -104 -242 -111 -238 -9 6 -15 50 -24 162 l-5 72 47 4 c27 2
58 4 71 5 12 1 22 -1 22 -5z m-186 -30 c3 -16 6 -66 8 -113 l3 -85 -188 -9
c-103 -5 -189 -7 -191 -5 -5 5 -26 212 -22 216 3 3 250 18 343 22 38 1 42 -1
47 -26z m-1339 -73 c92 -44 165 -83 163 -87 -23 -47 -32 -63 -39 -63 -5 0 -31
14 -59 31 -50 31 -50 31 -121 19 -39 -7 -74 -8 -79 -4 -4 5 -15 41 -24 79 -9
39 -19 78 -22 88 -3 9 -1 17 5 17 5 0 85 -36 176 -80z m899 63 c2 -10 8 -62
12 -115 l6 -98 -66 -2 c-36 -1 -83 -2 -103 -2 l-38 -1 -16 107 -16 107 41 6
c23 3 66 7 96 8 30 2 60 4 67 5 6 1 14 -6 17 -15z m728 -196 c63 -249 119
-489 114 -494 -3 -3 -426 87 -434 92 -7 5 83 228 127 315 26 52 67 139 91 192
24 54 46 96 48 93 3 -3 27 -92 54 -198z m-1009 181 c-5 -7 -29 -59 -52 -114
l-43 -101 -62 -7 c-33 -3 -108 -9 -165 -13 l-105 -6 21 34 c12 19 43 72 70
119 l49 85 104 6 c197 10 193 10 183 -3z m-1472 -223 c85 -46 154 -88 154 -92
-1 -18 -60 -123 -72 -127 -11 -5 -339 106 -351 119 -2 2 10 30 28 62 55 97 71
123 79 123 4 0 77 -38 162 -85z m907 25 c28 -17 52 -33 52 -36 0 -2 -18 -37
-41 -77 -45 -79 -86 -137 -97 -137 -4 0 -16 30 -26 68 -10 37 -26 76 -36 87
-10 11 -21 39 -25 61 l-6 42 58 9 c32 6 60 11 63 12 3 0 29 -13 58 -29z m2273
1 c3 -3 -7 -85 -22 -181 -41 -255 -45 -234 54 -255 59 -12 99 -28 143 -56 33
-21 70 -39 83 -39 21 0 22 -3 15 -61 -6 -56 -5 -61 12 -57 14 2 21 16 28 53 5
28 10 51 11 53 3 3 237 -38 246 -44 6 -4 -17 -134 -26 -142 -2 -2 -140 27
-307 65 l-303 68 -17 90 c-15 76 -17 122 -12 290 3 110 8 208 11 218 4 14 11
16 41 11 20 -3 40 -9 43 -13z m147 -17 c56 -7 60 -13 46 -81 l-6 -30 -76 16
c-72 15 -77 18 -74 41 7 62 12 72 35 67 12 -3 46 -9 75 -13z m-1083 -14 c3 -5
-8 -37 -25 -70 -17 -34 -48 -109 -70 -167 -21 -57 -40 -107 -43 -109 -3 -3
-93 -2 -202 2 l-196 7 37 39 c21 21 46 38 57 38 32 0 77 29 77 50 0 14 16 28
50 45 54 27 99 77 116 127 10 31 14 33 70 39 98 10 123 9 129 -1z m-245 -17
c0 -29 -50 -83 -102 -109 -27 -14 -52 -23 -54 -21 -3 2 -7 34 -11 70 l-6 66
79 4 c43 1 82 4 87 5 4 1 7 -5 7 -15z m1514 2 l48 -7 -7 -56 c-4 -31 -9 -59
-11 -61 -1 -2 -33 2 -69 9 l-67 13 7 51 c9 62 12 68 33 62 10 -2 39 -7 66 -11z
m-1734 -24 c0 -10 3 -39 6 -65 l7 -46 -102 0 c-74 0 -101 3 -102 13 0 6 -4 33
-8 59 -9 56 -11 55 117 57 74 1 82 -1 82 -18z m-676 -40 c24 -22 156 -81 182
-81 12 0 15 -5 10 -22 -13 -41 -11 -52 6 -56 13 -2 24 12 43 54 14 32 27 60
30 62 2 2 13 -6 26 -19 l22 -22 -21 -41 c-12 -23 -22 -44 -22 -48 0 -4 25 -24
55 -44 30 -20 55 -39 55 -42 0 -6 -601 6 -607 12 -5 5 35 86 94 189 41 70 48
77 76 77 17 0 40 -9 51 -19z m3298 3 c43 -3 80 -10 83 -14 3 -5 -6 -28 -20
-51 -21 -32 -31 -40 -48 -35 -12 3 -52 8 -88 12 l-67 7 -5 40 c-7 52 -4 57 36
52 17 -3 67 -7 109 -11z m-1092 -54 c20 -5 25 -13 25 -40 0 -38 17 -47 88 -49
32 -1 38 2 35 17 -2 11 -15 19 -37 22 -19 3 -36 10 -38 16 -2 7 35 3 104 -11
189 -39 192 -39 204 -11 9 19 21 25 63 30 89 12 87 16 53 -152 -16 -81 -30
-149 -32 -150 -2 -2 -52 6 -112 17 -115 22 -149 20 -158 -9 -9 -28 -70 -15
-127 27 -32 23 -73 41 -123 52 -42 10 -78 21 -81 23 -4 5 22 194 32 226 4 13
36 10 104 -8z m1495 -120 c127 -44 249 -87 272 -96 l41 -15 -40 -72 c-22 -40
-44 -76 -48 -81 -4 -4 -28 3 -52 17 -38 22 -409 147 -436 147 -6 0 -37 -69
-70 -152 -39 -99 -66 -154 -76 -156 -9 -2 -16 -2 -16 0 0 2 26 100 59 218 63
231 91 296 119 279 9 -5 121 -45 247 -89z m-394 4 c9 -5 -130 -506 -143 -519
-7 -7 -9 46 -4 174 3 101 6 225 6 274 l0 89 68 -7 c37 -4 70 -9 73 -11z m856
-165 c36 -12 60 -25 58 -32 -35 -106 -95 -305 -95 -314 0 -7 9 -13 19 -13 16
0 27 25 65 144 25 79 46 149 46 154 0 21 22 23 71 7 38 -13 50 -21 46 -34
-100 -345 -114 -407 -109 -483 4 -71 3 -78 -14 -78 -22 1 -234 46 -239 52 -9
9 70 618 80 618 6 0 39 -9 72 -21z m-4056 5 l37 -6 -48 -118 c-26 -64 -52
-125 -58 -136 -8 -14 -44 -27 -144 -50 l-133 -31 -47 24 c-27 13 -48 29 -48
37 0 20 61 248 71 269 9 15 28 17 172 17 89 0 178 -3 198 -6z m3539 -53 c155
-50 250 -91 250 -110 0 -5 -22 -48 -49 -97 -49 -89 -73 -109 -79 -66 -4 23
-37 32 -44 11 -3 -9 -12 -9 -33 -2 -22 7 -31 17 -33 36 -4 30 -26 36 -40 11
-14 -26 -68 -5 -64 24 2 17 -2 22 -17 22 -21 0 -46 -44 -58 -102 -5 -23 -2
-28 15 -28 12 0 23 9 27 20 12 38 65 21 65 -21 0 -34 24 -40 40 -10 9 17 14
18 40 9 22 -7 30 -16 30 -34 0 -29 27 -33 46 -6 12 16 13 16 19 0 4 -10 -7
-41 -29 -81 l-36 -64 -197 44 c-186 40 -247 57 -266 73 -4 3 1 33 11 66 18 56
20 59 49 57 17 -2 35 3 41 10 5 6 31 66 57 132 26 66 51 131 56 144 5 12 15
21 22 18 6 -2 86 -28 177 -56z m965 -7 c74 -36 137 -70 140 -74 3 -4 -18 -35
-46 -69 l-51 -60 -119 60 c-66 32 -119 62 -119 65 0 20 43 144 51 144 4 0 69
-30 144 -66z m-4365 -171 c21 -120 37 -219 35 -221 -4 -5 -194 153 -194 163
-1 6 20 62 45 125 25 63 50 126 55 139 5 13 12 21 16 18 3 -4 22 -104 43 -224z
m140 57 c40 -94 71 -172 69 -173 -2 -2 -30 -22 -62 -46 -32 -23 -60 -41 -62
-39 -1 1 -17 91 -35 198 -17 107 -34 203 -36 213 -4 13 1 17 24 17 29 0 32 -4
102 -170z m118 138 c15 -18 55 -63 90 -99 l63 -67 -67 -48 c-38 -27 -73 -52
-80 -56 -8 -6 -22 15 -42 65 -17 39 -46 109 -66 155 l-35 82 55 0 c50 0 58 -3
82 -32z m376 17 c4 -11 -17 -32 -67 -69 -122 -90 -110 -87 -163 -36 -25 25
-59 62 -76 83 l-30 37 165 0 c138 0 166 -2 171 -15z m413 -55 c122 -28 223
-50 226 -50 10 0 16 -75 6 -80 -5 -4 -14 -35 -19 -71 -22 -143 -17 -132 -58
-124 -20 4 -58 11 -84 17 l-48 10 7 55 c5 50 4 55 -13 51 -12 -2 -22 -18 -29
-48 -10 -40 -14 -45 -36 -42 -44 6 -280 60 -286 65 -3 3 -2 20 2 37 5 22 11
29 23 26 78 -24 165 -37 175 -27 18 18 -3 30 -87 50 -42 10 -80 21 -83 25 -3
3 -1 23 5 43 6 21 16 57 22 81 9 36 14 41 33 37 12 -3 122 -28 244 -55z
m-1728 -156 c-22 -102 -37 -190 -34 -195 4 -5 -7 -80 -24 -166 -16 -87 -35
-192 -40 -233 -6 -41 -21 -118 -32 -170 -11 -52 -22 -105 -25 -117 -4 -21 -9
-20 -195 42 -106 36 -193 66 -195 68 -2 2 45 121 105 265 114 271 161 403 161
451 0 24 17 39 145 125 79 53 147 101 150 106 22 36 17 -13 -16 -176z m4430
-69 c-37 -310 -34 -298 -62 -292 -12 3 -57 13 -99 22 -43 9 -78 22 -78 27 0
12 262 500 266 496 1 -2 -11 -115 -27 -253z m-3052 171 c1 -1 -2 -18 -7 -37
-7 -24 -57 -83 -172 -202 l-163 -167 -70 64 c-38 35 -68 66 -65 69 3 3 93 68
200 147 189 137 196 141 235 135 21 -3 40 -7 42 -9z m884 -65 c222 -45 563
-123 571 -130 6 -5 -9 -100 -17 -109 -1 -1 -51 9 -110 24 -133 32 -149 27
-159 -42 -11 -80 -10 -82 32 -90 20 -4 40 -8 43 -10 5 -3 -38 -211 -56 -270
-9 -30 16 -51 80 -65 43 -10 55 -16 55 -31 0 -27 -50 -221 -59 -231 -8 -8
-227 -47 -262 -47 -14 0 -27 43 -69 216 -29 118 -50 217 -48 219 1 2 28 10 58
17 39 10 56 20 59 33 3 16 -2 17 -45 12 -27 -4 -58 -9 -70 -13 -20 -5 -23 3
-53 120 -17 69 -31 130 -31 135 0 5 29 14 65 21 55 10 65 16 65 32 0 19 -5 20
-42 15 -24 -4 -57 -9 -74 -13 l-31 -6 -27 104 c-15 56 -30 111 -32 121 -7 22
-13 22 157 -12z m2746 -85 l53 -26 -67 -135 c-37 -74 -72 -135 -77 -135 -6 0
-45 23 -88 51 -55 37 -77 57 -74 68 3 9 19 66 36 126 17 61 34 118 36 128 5
16 12 14 67 -16 34 -19 86 -46 114 -61z m-4432 -127 c55 -45 101 -84 102 -88
2 -3 -16 -18 -39 -33 l-43 -27 -80 43 c-44 24 -118 63 -164 86 -45 22 -81 44
-78 47 5 4 143 41 197 52 3 1 50 -35 105 -80z m2475 37 c80 -19 195 -44 255
-56 159 -31 215 -49 215 -67 0 -8 -10 -29 -22 -45 -21 -30 -22 -31 -87 -25
-36 4 -169 15 -296 27 -247 22 -269 26 -262 44 3 6 10 38 16 71 15 75 18 85
28 85 4 0 73 -15 153 -34z m-2729 -95 l230 -118 -111 -83 c-131 -96 -472 -321
-478 -315 -10 10 21 205 35 216 8 7 20 27 28 44 17 43 47 236 44 288 -4 62 0
87 11 87 6 0 115 -53 241 -119z m1344 59 c132 -28 241 -53 243 -54 1 -2 -1
-25 -5 -52 l-9 -49 -77 4 c-64 3 -77 1 -77 -12 0 -18 15 -23 92 -33 l57 -6 -6
-47 c-3 -25 -8 -48 -10 -50 -4 -5 -563 79 -576 86 -9 5 0 53 11 65 4 4 86 -6
182 -22 96 -16 178 -30 183 -30 4 0 7 9 7 20 0 23 5 21 -200 55 -85 15 -156
27 -157 29 -1 1 7 37 19 80 l22 78 30 -5 c17 -3 139 -29 271 -57z m-365 26 c0
-16 -57 -216 -63 -223 -3 -2 -39 6 -81 19 l-77 22 103 103 c95 95 118 111 118
79z m1500 -128 c0 -16 -6 -31 -12 -33 -7 -2 -56 6 -108 19 -89 21 -95 24 -92
47 5 48 6 48 111 22 99 -25 101 -26 101 -55z m-1827 -92 c-15 -17 -52 -57 -83
-89 l-54 -57 -88 87 -87 86 71 49 c40 27 83 58 96 69 l24 19 75 -67 74 -66
-28 -31z m1069 115 c10 -9 62 -241 55 -247 -7 -8 -142 7 -158 16 -11 7 -11 27
0 117 8 59 16 114 18 121 5 13 69 7 85 -7z m1792 -66 c66 -14 122 -27 124 -30
2 -2 1 -17 -3 -34 -7 -34 -30 -58 -40 -41 -12 19 -27 10 -22 -12 5 -16 -1 -31
-19 -50 l-26 -26 -84 105 c-46 59 -84 110 -84 115 0 5 8 7 18 4 9 -3 71 -17
136 -31z m-909 -5 c28 -5 138 -17 245 -26 107 -9 214 -19 238 -23 l43 -6 -147
-225 c-80 -124 -149 -228 -152 -232 -5 -5 -200 -37 -312 -51 -10 -1 -18 16
-27 63 -17 93 -17 187 1 330 25 188 26 192 45 185 9 -4 39 -11 66 -15z m1901
-26 c41 -25 74 -48 74 -51 0 -2 -7 -17 -15 -33 -17 -33 -37 -37 -95 -17 -35
12 -35 13 -40 80 -3 37 -3 67 -1 67 2 0 37 -21 77 -46z m-1057 -141 c66 -84
117 -154 113 -157 -9 -6 -265 25 -274 33 -5 4 13 249 21 291 1 6 9 -2 140
-167z m-1039 146 c36 -8 50 -15 50 -28 0 -25 -31 -255 -35 -259 -4 -5 -129 28
-137 36 -6 6 31 200 47 250 5 15 11 15 75 1z m1320 -19 c47 -1 43 -16 -31
-145 l-73 -127 -18 24 c-10 13 -27 35 -38 49 l-19 25 55 61 c31 35 57 75 61
93 5 26 9 31 27 26 12 -3 28 -6 36 -6z m-509 -167 c-6 -87 -14 -195 -17 -241
-7 -96 2 -91 -149 -95 -81 -2 -100 -5 -100 -17 0 -12 20 -15 117 -15 64 0 119
-3 122 -6 3 -3 1 -77 -4 -164 -10 -151 -9 -166 15 -299 33 -177 89 -362 161
-528 31 -71 55 -130 53 -132 -12 -9 -243 -36 -249 -29 -8 8 -280 1108 -280
1131 0 7 11 17 25 22 30 12 33 30 4 30 -11 0 -19 4 -17 9 7 20 323 499 326
496 3 -2 -1 -75 -7 -162z m-2829 70 l87 -88 -102 -107 -102 -108 -114 108
-114 108 119 87 c65 48 123 87 129 87 6 0 49 -39 97 -87z m417 66 c42 -12 80
-24 84 -29 6 -6 -68 -356 -78 -368 -2 -3 -356 127 -364 134 -6 5 262 283 273
283 6 1 44 -8 85 -20z m3238 -42 c5 -6 -114 -521 -126 -544 -4 -7 -59 55 -134
148 l-128 159 77 133 c42 72 81 137 86 143 6 9 36 6 114 -11 58 -12 107 -25
111 -28z m-2945 -22 c54 -8 100 -15 103 -15 3 0 5 -4 5 -10 0 -5 -21 -10 -46
-10 -78 0 -47 -24 47 -36 46 -7 101 -15 122 -19 30 -6 37 -4 37 8 0 17 -13 22
-82 32 -27 3 -48 11 -48 17 0 7 14 9 38 5 394 -55 478 -70 493 -85 16 -16 115
-410 106 -419 -2 -2 -188 -35 -413 -73 -225 -39 -417 -73 -426 -76 -15 -4 -80
11 -195 47 -23 7 -33 17 -33 30 0 21 46 231 105 477 l37 153 26 -5 c15 -3 71
-12 124 -21z m3146 -14 c73 -16 135 -31 138 -34 3 -2 8 -53 11 -112 5 -92 4
-107 -8 -100 -13 9 -290 204 -297 210 -6 6 9 65 16 65 4 0 67 -14 140 -29z
m-23 -191 c70 -50 138 -96 151 -102 30 -14 31 -41 1 -61 -12 -8 -85 -96 -161
-196 -76 -99 -141 -181 -144 -180 -10 0 -107 127 -110 145 -7 29 111 495 124
490 6 -2 69 -46 139 -96z m-4098 -27 l114 -106 -51 -52 -51 -52 -245 36 c-136
20 -244 40 -244 46 1 10 339 235 354 235 4 0 60 -48 123 -107z m4601 -107
c123 -88 190 -142 185 -149 -26 -46 -66 -97 -74 -97 -6 0 -88 56 -182 124 -95
68 -182 129 -195 135 -18 9 -21 17 -16 39 4 15 13 31 21 35 7 4 20 22 29 38
10 21 19 28 27 21 7 -5 99 -71 205 -146z m-1192 103 l62 -2 -18 -61 c-10 -34
-25 -86 -33 -116 -9 -32 -21 -138 -27 -255 -10 -174 -9 -205 4 -236 13 -30 52
-70 149 -149 4 -4 -62 -52 -147 -108 l-155 -101 -32 102 c-17 56 -45 167 -61
247 l-29 145 11 200 c6 110 13 236 16 281 l5 80 97 -13 c53 -7 125 -13 158
-14z m-2871 -97 c130 -50 130 -50 129 -81 -4 -64 5 -64 -241 7 -125 36 -230
67 -232 69 -3 2 17 25 43 52 l48 49 62 -23 c33 -13 120 -46 191 -73z m3093
-84 c56 -70 102 -130 102 -134 0 -4 -22 -4 -49 0 -95 12 -115 -15 -109 -144 2
-50 7 -65 18 -65 12 0 16 17 18 77 3 93 9 98 102 89 62 -6 65 -7 63 -32 -2
-33 -102 -422 -113 -439 -9 -15 -66 25 -170 118 l-55 49 -3 83 c-3 54 0 86 8
93 9 9 10 3 5 -25 -6 -30 -4 -39 9 -44 22 -8 22 -8 30 54 6 50 6 53 -20 62
l-26 10 6 98 c6 79 29 185 62 281 6 17 -4 28 122 -131z m-4448 -9 c102 -34
188 -65 193 -68 7 -7 -6 -97 -15 -106 -2 -2 -96 26 -208 63 -182 60 -205 69
-202 87 6 32 30 85 39 85 4 0 91 -28 193 -61z m1273 -40 l188 -54 -6 -45 c-4
-25 -9 -47 -11 -49 -4 -4 -480 131 -533 151 l-24 9 37 38 38 39 62 -18 c33 -9
146 -41 249 -71z m4057 -44 c91 -65 167 -120 169 -122 3 -2 -69 -113 -160
-247 -90 -135 -166 -243 -167 -241 -2 2 -8 113 -12 247 -5 134 -12 301 -15
373 -6 108 -5 127 6 119 8 -6 88 -64 179 -129z m-4780 60 c256 -36 242 -29
176 -94 l-54 -53 -38 12 c-22 7 -102 35 -180 62 l-140 49 4 29 c3 24 8 29 26
25 11 -2 104 -16 206 -30z m4549 -90 c0 -55 -2 -75 -9 -65 -5 8 -10 25 -10 38
0 13 -6 22 -15 22 -22 0 -27 -19 -17 -65 6 -30 13 -41 30 -43 28 -4 30 -18 37
-273 6 -215 5 -219 -35 -219 -10 0 -280 343 -280 355 0 12 52 75 62 75 6 0 39
-20 74 -45 69 -50 84 -54 84 -26 0 12 -24 36 -65 66 -41 29 -63 51 -58 58 4 7
47 66 97 132 103 136 103 136 105 -10z m-1599 81 c0 -2 32 -128 70 -280 39
-152 70 -280 70 -285 0 -5 -6 -11 -12 -14 -7 -2 -6 -3 3 -2 12 2 21 -20 39
-94 30 -127 209 -860 217 -886 3 -13 -12 -4 -45 29 -32 31 -49 54 -45 65 4 14
3 14 -6 1 -8 -11 -4 -21 15 -41 13 -14 21 -28 17 -32 -3 -4 0 -7 8 -7 17 0 75
-57 67 -65 -16 -16 -278 61 -439 130 l-87 36 5 40 c5 32 3 39 -11 39 -9 0 -16
-8 -16 -19 0 -48 -6 -50 -88 -25 -42 13 -138 42 -212 64 -74 22 -136 45 -138
50 -2 5 -9 7 -16 4 -14 -5 -575 183 -591 199 -7 6 -6 11 2 14 7 2 10 10 7 16
-8 21 254 650 266 642 5 -3 6 4 3 15 -4 15 0 20 13 20 14 0 15 3 6 8 -9 6 -2
33 32 113 24 57 49 103 55 102 5 -2 8 3 5 11 -3 8 -1 17 4 20 8 5 158 31 292
50 19 3 60 10 90 17 30 7 134 24 230 40 207 32 190 30 190 25z m-2350 -127
l265 -77 -2 -38 c-3 -45 -2 -44 -50 -51 -27 -3 -88 9 -218 47 -221 63 -379
111 -384 116 -3 3 15 25 39 49 34 34 49 43 65 38 11 -3 139 -41 285 -84z
m-1189 5 c112 -36 206 -68 208 -70 5 -4 -20 -166 -28 -181 -4 -8 -73 13 -223
66 -119 42 -220 79 -223 83 -8 8 45 168 55 168 4 0 99 -30 211 -66z m514 4
c82 -28 154 -55 158 -59 11 -9 -201 -309 -217 -308 -6 0 -45 12 -86 27 -87 32
-82 5 -49 235 12 89 27 157 33 157 5 0 78 -23 161 -52z m2125 -37 c0 -13 -60
-154 -70 -165 -12 -12 -454 22 -528 41 -34 9 -60 19 -57 22 6 6 595 108 633
110 12 1 22 -3 22 -8z m-1701 -70 c349 -104 423 -123 457 -118 43 7 43 9 3
-169 -34 -154 -66 -247 -83 -241 -116 43 -697 229 -739 237 -57 11 -58 12 -43
33 8 12 20 20 28 18 7 -2 30 -6 52 -9 50 -7 46 18 -5 32 -19 5 -36 11 -38 12
-3 3 95 144 152 217 16 20 33 37 39 37 6 0 86 -22 177 -49z m3773 -62 c-16
-25 -7 -58 19 -67 17 -7 10 -20 -61 -117 -44 -60 -80 -105 -80 -100 0 6 19 88
42 183 l42 172 26 -25 c22 -22 23 -28 12 -46z m-2779 7 c11 -29 112 -47 362
-67 137 -11 252 -22 254 -25 2 -2 -1 -16 -8 -30 l-11 -26 -148 4 c-125 3 -147
1 -147 -12 0 -12 25 -16 134 -22 73 -4 135 -9 138 -12 2 -2 -12 -42 -31 -88
l-36 -83 -114 3 -113 4 -21 -51 c-39 -88 -29 -99 92 -108 47 -3 86 -10 86 -15
0 -5 -6 -21 -14 -36 l-14 -27 -114 7 c-64 3 -117 2 -123 -3 -19 -19 15 -30
106 -35 122 -7 122 -7 107 -40 -12 -26 -12 -26 -117 -22 -77 2 -105 0 -108 -9
-6 -17 7 -20 110 -28 84 -7 87 -8 81 -28 -3 -12 -9 -25 -13 -29 -5 -6 -203 56
-220 68 -2 2 27 120 65 264 41 157 64 264 58 269 -19 19 -331 140 -377 146
-26 4 -46 9 -44 12 5 4 133 31 158 32 9 1 19 -6 22 -13z m-2305 -31 c2 -2 -97
-296 -102 -301 0 -1 -24 7 -52 18 l-52 20 28 71 c15 40 37 104 50 142 12 39
24 73 27 77 3 5 89 -18 101 -27z m2079 -14 c8 -12 28 -20 64 -24 29 -4 81 -18
114 -33 l62 -26 -29 -30 c-15 -16 -28 -34 -28 -38 0 -5 -5 -21 -10 -36 -8 -21
-14 -24 -22 -16 -17 17 -48 15 -48 -3 0 -8 9 -20 20 -27 11 -7 20 -18 20 -25
0 -15 -100 -296 -109 -305 -4 -5 -55 8 -113 28 l-107 35 16 51 c8 28 19 62 24
75 15 41 11 75 -8 71 -12 -2 -25 -29 -43 -86 -15 -45 -29 -84 -32 -87 -3 -3
-17 -3 -32 1 -20 5 -26 12 -26 33 0 29 85 419 93 427 4 5 136 31 167 33 8 1
20 -7 27 -18z m-1931 -39 c38 -16 87 -40 110 -54 l41 -26 -45 -131 c-38 -113
-47 -131 -66 -131 -16 0 -203 56 -213 65 -3 2 98 305 102 305 2 0 34 -13 71
-28z m5172 -194 c67 -86 122 -164 122 -172 0 -11 -10 -16 -33 -16 -28 0 -39 8
-81 64 -27 36 -62 70 -78 77 -16 6 -54 43 -83 81 l-55 70 32 39 c25 31 34 37
43 27 7 -7 67 -84 133 -170z m-2886 104 c37 -15 68 -31 68 -36 0 -8 -121 -478
-124 -483 -1 -1 -33 7 -71 18 -39 11 -87 24 -107 30 -21 5 -38 15 -38 22 0 19
150 431 161 442 5 5 9 18 9 28 0 21 -5 22 102 -21z m-2022 -63 c30 -11 58 -25
61 -30 5 -9 -29 -228 -37 -238 -5 -5 -156 48 -168 59 -11 11 62 230 77 230 7
0 37 -9 67 -21z m5657 -161 l41 -103 -108 -3 c-60 -1 -162 -1 -227 0 -98 3
-114 5 -93 15 14 6 95 52 180 102 85 50 157 91 160 91 3 0 24 -46 47 -102z
m-5311 42 c32 -11 62 -24 65 -28 8 -8 34 -241 27 -247 -2 -2 -50 10 -106 27
-80 25 -101 35 -98 47 2 9 10 57 16 106 13 103 16 115 28 115 5 0 35 -9 68
-20z m287 -21 c40 -12 75 -25 79 -28 4 -4 0 -30 -9 -58 l-16 -52 -66 -6 c-36
-3 -82 -8 -102 -11 l-37 -5 -9 83 c-5 46 -7 86 -5 91 7 14 95 7 165 -14z
m3810 -3 l28 -22 -116 -152 c-63 -83 -115 -155 -115 -161 0 -13 -9 -18 -51
-26 l-35 -6 -38 86 c-20 48 -36 89 -34 91 8 7 323 212 328 213 3 0 18 -10 33
-23z m-3555 -83 c56 -21 102 -42 102 -48 0 -15 -48 -186 -54 -192 -3 -3 -50
34 -104 83 l-98 88 15 53 c8 29 19 53 25 53 6 0 57 -17 114 -37z m3648 17 c5
-5 43 -22 84 -36 63 -23 98 -28 220 -33 l145 -6 -130 -38 c-71 -20 -228 -66
-347 -101 l-218 -64 28 38 c114 155 189 249 198 250 5 0 14 -4 20 -10z m-3388
-105 c46 -15 86 -33 88 -40 7 -17 -54 -268 -69 -289 -11 -14 -22 -11 -107 29
-52 25 -94 49 -94 53 9 58 80 282 88 279 6 -2 48 -16 94 -32z m4032 -21 c22
-9 51 -13 64 -10 18 4 28 0 39 -18 9 -12 48 -60 87 -106 60 -70 71 -87 68
-114 l-3 -31 -198 -5 c-110 -3 -201 -2 -203 1 -8 14 9 69 22 69 10 0 14 16 14
60 0 47 -3 60 -15 60 -11 0 -15 -12 -15 -45 0 -31 -5 -47 -15 -51 -10 -4 -15
-20 -15 -50 l0 -44 -361 0 c-239 0 -367 -4 -381 -11 -36 -19 -33 1 7 40 38 36
56 43 390 140 202 58 351 97 353 91 5 -15 32 -12 32 3 0 38 61 48 130 21z
m-4413 -55 c38 -34 68 -66 68 -71 0 -5 -12 -17 -27 -26 -26 -15 -33 -14 -155
22 -160 48 -163 50 -163 86 0 33 9 37 90 43 122 9 114 12 187 -54z m653 -14
c19 -7 34 -17 34 -21 -5 -28 -106 -334 -110 -334 -3 0 -25 5 -50 11 -36 9 -44
15 -38 28 4 9 26 89 48 178 45 180 34 167 116 138z m355 -125 c28 -10 62 -23
77 -29 l27 -10 -26 -76 c-21 -59 -30 -74 -42 -70 -9 4 -92 31 -186 62 -93 30
-172 57 -174 58 -1 2 9 40 24 84 l26 80 112 -41 c62 -22 135 -48 162 -58z
m-1438 45 c70 -24 227 -74 348 -109 214 -63 309 -97 388 -138 22 -11 58 -23
80 -27 50 -8 50 20 -4 -264 -21 -115 -36 -219 -33 -233 7 -29 4 -29 -44 -5
-20 10 -201 77 -402 149 -201 72 -372 133 -381 137 -22 8 -47 141 -53 282 -2
61 -9 120 -14 130 -10 19 -24 123 -17 123 2 0 61 -20 132 -45z m-214 -240 c8
-88 12 -162 10 -164 -2 -3 -34 5 -71 17 -38 12 -82 22 -100 22 -30 0 -31 1
-20 31 9 25 14 29 32 24 63 -20 88 8 30 34 l-32 14 23 51 c13 28 40 87 60 131
l38 80 8 -40 c5 -22 15 -112 22 -200z m1952 83 c4 -4 -17 -79 -47 -168 l-53
-161 -30 5 c-48 10 -50 19 -26 106 17 64 20 85 10 96 -6 8 -17 14 -23 14 -35
1 -38 17 -16 81 12 35 24 69 25 75 3 11 144 -31 160 -48z m2081 -9 c8 -14 -14
-29 -43 -29 -16 0 -23 -6 -23 -20 0 -16 7 -20 33 -20 l34 0 13 -72 c7 -40 15
-79 17 -85 4 -10 -26 -13 -130 -13 l-135 0 -25 102 c-14 57 -25 104 -23 105 3
4 226 40 253 42 12 0 25 -4 29 -10z m598 -5 c9 -3 16 -12 16 -19 0 -9 -31 -15
-107 -20 -60 -4 -114 -12 -120 -17 -8 -7 -13 -36 -13 -79 0 -59 -3 -70 -22
-83 -12 -9 -28 -16 -34 -16 -7 0 -56 50 -110 111 -76 86 -94 113 -83 120 16
10 448 13 473 3z m-2581 -10 c12 -4 5 -36 -41 -175 -51 -153 -59 -169 -80
-169 -12 0 -25 7 -28 15 -3 7 18 86 47 175 55 163 60 171 102 154z m2860 -1
c3 -5 -14 -111 -36 -237 l-41 -229 -85 -41 c-64 -30 -100 -41 -147 -44 l-62
-4 -41 71 c-23 39 -40 75 -37 80 3 5 35 21 71 36 47 20 65 33 65 47 0 25 -17
23 -95 -12 -37 -17 -71 -27 -76 -24 -5 3 -18 23 -30 45 -16 33 -18 43 -8 55
13 15 64 11 84 -7 5 -5 25 -9 45 -9 28 0 38 6 52 30 22 39 48 38 104 -2 l44
-32 45 22 c98 47 119 207 30 224 -11 2 -21 11 -23 21 -3 15 5 17 67 17 38 0
72 -3 74 -7z m-2673 -53 c41 -12 79 -25 83 -30 17 -15 -4 -49 -51 -83 -43 -30
-50 -41 -71 -109 l-24 -76 -31 9 c-43 13 -45 12 -56 -17 -8 -20 -14 -24 -33
-18 -12 3 -24 8 -26 10 -3 2 20 81 49 174 43 135 57 169 69 166 9 -3 50 -14
91 -26z m1958 -114 c107 -122 237 -322 226 -350 -10 -27 -66 -29 -181 -6
l-110 22 -6 147 c-4 80 -13 175 -22 211 -15 66 -18 90 -12 90 2 0 49 -51 105
-114z m-1633 2 c2 -2 -12 -52 -32 -111 l-34 -109 -38 7 c-30 5 -41 2 -56 -14
-16 -18 -55 -30 -55 -16 0 2 7 30 15 62 18 67 19 128 5 170 -7 20 -7 38 -1 55
l10 26 91 -33 c50 -18 93 -35 95 -37z m-1402 41 c20 -5 37 -12 37 -14 0 -2 -9
-25 -20 -51 -26 -61 -74 -374 -57 -374 7 0 444 -159 532 -194 50 -19 98 -35
107 -36 9 0 19 -4 22 -9 5 -8 -12 -71 -19 -71 -2 0 -66 24 -142 54 -76 30
-238 85 -360 122 -210 65 -223 70 -233 97 -7 22 0 78 31 245 22 119 42 223 44
230 5 15 10 15 58 1z m1549 -85 c46 -14 86 -28 90 -30 3 -2 -5 -38 -18 -79
l-25 -74 -87 31 c-48 17 -91 34 -95 38 -7 6 16 109 30 133 6 11 15 9 105 -19z
m355 -130 c61 -24 116 -44 122 -44 14 0 14 -1 -7 -57 -11 -26 -22 -56 -25 -65
-5 -15 -11 -13 -41 13 l-34 31 15 45 c8 24 13 47 10 50 -13 13 -34 -7 -45 -43
-19 -63 -45 -68 -150 -33 -48 16 -92 31 -99 34 -9 3 -5 25 13 79 l26 75 51
-21 c29 -11 102 -40 164 -64z m-1682 1 c102 -36 193 -65 200 -65 7 0 21 21 31
48 9 26 21 51 26 56 10 12 188 -43 195 -60 7 -19 -67 -234 -81 -234 -7 0 -52
14 -101 30 -49 17 -94 30 -101 30 -7 0 -21 -25 -30 -55 -10 -30 -22 -55 -28
-55 -10 0 -327 109 -334 115 -3 3 31 255 34 255 1 0 86 -29 189 -65z m2695
-43 l0 -109 -112 21 -112 21 -22 88 -22 87 134 0 134 0 0 -108z m-4193 -49
c163 -59 177 -69 128 -91 -19 -9 -25 -19 -25 -42 l0 -30 -100 0 -101 0 -72
-48 c-83 -55 -109 -58 -100 -9 8 48 114 267 129 267 7 0 70 -21 141 -47z
m5419 20 c4 -16 6 -34 5 -41 -1 -8 4 -19 13 -25 17 -14 49 -87 37 -87 -5 0
-14 6 -20 14 -7 8 -30 17 -52 21 -24 4 -39 12 -39 21 0 8 -7 14 -15 14 -20 0
-75 -77 -75 -105 0 -12 22 -51 48 -86 59 -78 61 -83 73 -188 l9 -83 -49 -108
c-27 -59 -68 -136 -91 -170 l-43 -63 99 -92 98 -92 -58 -37 c-32 -21 -83 -48
-113 -61 -75 -33 -209 -69 -230 -60 -10 3 -92 15 -183 26 -191 22 -217 29
-254 68 l-28 29 -1 179 c-1 175 0 182 48 419 l48 241 86 27 c82 26 177 61 250
92 18 8 36 12 39 10 3 -3 -11 -12 -31 -21 -19 -8 -38 -19 -41 -24 -13 -20 16
-22 59 -4 36 15 45 23 45 43 0 23 14 31 168 97 92 39 172 71 178 72 7 1 15
-11 20 -26z m-1995 -12 c35 -11 80 -22 99 -26 19 -3 82 -22 140 -41 58 -18
150 -43 205 -55 55 -11 101 -22 103 -24 2 -2 -14 -13 -36 -24 -32 -16 -68 -53
-109 -110 -6 -8 -513 165 -513 176 0 12 41 123 45 123 2 0 31 -9 66 -19z
m-1262 0 c11 -7 11 -15 1 -47 -7 -22 -21 -48 -31 -59 -22 -24 -73 -144 -89
-208 -9 -35 -17 -47 -31 -47 -11 0 -19 2 -19 4 0 7 120 348 126 357 7 11 25
11 43 0z m609 -28 c58 -4 72 -9 71 -22 -1 -20 -34 -116 -40 -116 -3 0 -47 13
-98 30 -100 32 -98 29 -71 101 9 22 14 25 38 20 15 -4 60 -9 100 -13z m-378
-53 c85 -29 156 -54 157 -55 2 -1 -4 -23 -13 -48 -10 -31 -22 -47 -32 -47 -14
0 -14 -2 -3 -9 11 -7 9 -24 -14 -92 -15 -46 -29 -86 -31 -88 -2 -2 -26 17 -53
42 -28 26 -55 47 -61 47 -7 0 -63 16 -125 36 l-113 35 24 57 c14 31 35 66 47
77 12 11 22 25 22 30 1 31 19 76 28 72 7 -2 82 -28 167 -57z m661 -44 c11 -22
27 -34 55 -42 21 -6 39 -16 38 -22 -1 -7 -2 -19 -2 -27 -1 -9 -12 -15 -27 -15
-16 0 -25 -6 -25 -15 0 -10 10 -15 34 -15 28 0 36 5 44 28 5 15 25 44 45 64
l35 37 -1 -63 c-2 -48 2 -69 15 -83 16 -17 16 -21 0 -66 -16 -44 -19 -47 -45
-41 -15 3 -33 1 -40 -4 -9 -8 -36 -2 -94 18 -44 16 -117 39 -162 51 -44 12
-81 27 -81 32 0 6 16 61 35 123 l35 112 63 -20 c50 -16 65 -27 78 -52z m-1281
-51 c41 -14 78 -29 83 -34 9 -9 -8 -78 -23 -94 -4 -4 -48 8 -98 28 l-90 36 15
45 c8 24 20 44 27 44 7 0 46 -11 86 -25z m2528 -27 c236 -45 272 -54 272 -70
0 -15 -19 -109 -45 -224 -4 -18 -9 -21 -37 -15 -29 6 -33 11 -36 41 -2 19 -8
40 -13 46 -6 7 -52 11 -127 11 -64 0 -126 3 -137 7 -11 3 -53 57 -92 120 -69
108 -83 136 -65 136 4 0 130 -23 280 -52z m-765 -32 c125 -41 234 -79 242 -83
22 -13 -80 -157 -104 -147 -42 18 -154 54 -167 54 -17 0 -19 -37 -1 -43 6 -2
-4 -9 -23 -14 -25 -7 -48 -6 -79 4 -52 15 -66 31 -45 54 22 24 17 67 -12 105
-26 33 -60 144 -45 144 4 0 109 -34 234 -74z m510 -71 c37 -57 67 -108 67
-112 0 -12 -31 -30 -67 -37 -28 -6 -37 -1 -109 67 l-79 74 29 42 c25 36 66 69
87 71 3 0 35 -47 72 -105z m-3950 33 c-2 -35 -5 -68 -6 -74 -2 -11 -267 54
-267 66 0 3 22 19 48 37 44 30 53 32 138 32 l90 1 -3 -62z m677 -23 c166 -55
254 -89 253 -97 -1 -7 -23 -125 -48 -262 -25 -137 -45 -251 -45 -254 0 -12
-417 34 -433 48 -9 8 3 650 12 650 3 0 121 -38 261 -85z m-402 43 l85 -12 -6
-289 c-2 -158 -8 -291 -11 -294 -5 -5 -140 12 -178 23 -16 5 -18 20 -18 128 0
68 3 198 7 289 5 141 9 167 22 167 8 0 53 -5 99 -12z m-498 -98 c21 -6 25 -12
22 -41 -2 -32 1 -37 34 -53 62 -29 18 -48 -68 -29 -29 6 -47 22 -88 75 -28 36
-58 69 -66 72 -8 3 -13 10 -10 15 4 5 37 1 79 -11 39 -12 83 -24 97 -28z
m2426 -15 c46 -14 126 -77 113 -90 -3 -2 -35 -11 -72 -18 -65 -14 -67 -14
-102 10 -19 13 -65 37 -101 53 -65 30 -66 30 -59 62 4 18 9 36 11 40 2 3 39
-5 82 -18 42 -13 100 -31 128 -39z m-2607 6 c9 -5 38 -36 64 -69 35 -45 44
-62 34 -70 -14 -12 -249 -103 -254 -98 -4 4 127 246 133 246 3 0 13 -4 23 -9z
m4192 -37 l47 -46 -29 -62 c-16 -33 -33 -61 -37 -61 -5 0 -35 18 -69 40 l-60
40 46 67 c25 38 48 68 51 68 2 0 25 -21 51 -46z m-3866 8 l70 -18 3 -158 c1
-86 -1 -164 -6 -172 -7 -12 -26 8 -85 87 -43 56 -77 108 -77 114 0 6 16 19 35
28 28 13 35 22 35 45 0 22 -7 32 -35 45 -34 16 -42 27 -28 40 8 9 7 9 88 -11z
m1318 -94 c133 -45 244 -83 245 -84 7 -5 -41 -399 -49 -408 -4 -5 -29 -5 -55
-1 l-47 7 7 51 c3 29 9 86 13 128 l6 76 -79 12 c-109 17 -114 19 -114 46 0 46
-28 63 -124 74 -49 6 -90 12 -92 13 -7 7 29 168 38 168 5 0 118 -37 251 -82z
m741 52 l48 -22 -31 -19 c-36 -22 -49 -45 -33 -61 7 -7 19 -4 39 11 49 36 87
42 120 18 41 -29 89 -97 69 -97 -9 0 -16 -8 -16 -17 0 -10 -14 -33 -31 -52
l-31 -34 -66 65 c-68 65 -163 143 -185 151 -8 2 -8 14 2 46 11 39 15 43 39 38
15 -3 49 -15 76 -27z m789 5 c-9 -45 -27 -94 -34 -89 -5 3 -9 -8 -9 -24 0 -23
-25 -108 -55 -191 -4 -10 -20 -1 -55 34 -47 47 -50 52 -50 102 0 28 5 74 11
102 l10 49 57 15 c64 16 128 17 125 2z m418 -5 c32 0 51 -26 29 -40 -13 -8 43
-26 69 -21 7 1 10 -2 7 -7 -7 -13 76 -8 137 8 38 10 57 10 92 0 25 -7 45 -14
45 -17 0 -2 -19 -30 -41 -63 -29 -40 -47 -57 -58 -53 -12 4 -13 2 -3 -4 10 -7
-1 -28 -43 -86 -31 -43 -60 -75 -65 -72 -5 3 -10 0 -12 -5 -5 -15 -298 -65
-330 -57 l-26 7 55 166 c48 144 58 165 74 161 11 -3 19 -1 19 4 0 5 -7 9 -15
9 -20 0 -19 24 1 44 9 9 11 16 4 16 -6 0 -8 5 -5 11 4 6 14 8 22 5 8 -3 28 -6
44 -6z m-213 -50 c39 -13 72 -29 72 -34 0 -17 -92 -290 -100 -300 -8 -8 -208
49 -224 64 -4 5 15 78 43 163 l52 156 42 -13 c23 -7 75 -23 115 -36z m1085 -5
c9 -20 17 -44 17 -54 0 -22 -47 -152 -60 -165 -5 -5 -51 15 -109 48 l-101 57
31 61 31 60 35 -33 c19 -19 39 -44 44 -56 9 -24 33 -29 58 -14 20 13 6 61 -17
61 -19 0 -42 18 -42 32 0 4 10 8 23 8 13 0 32 7 43 15 27 20 28 19 47 -20z
m257 2 c0 -49 16 -67 60 -67 48 0 48 3 19 -140 -34 -172 -39 -193 -44 -198 -3
-3 -32 3 -65 13 l-59 18 6 42 c3 23 0 74 -7 114 -12 71 -13 73 -60 104 -42 28
-49 37 -52 72 -3 22 -8 47 -12 56 -6 14 7 15 104 15 l110 0 0 -29z m-579 -119
c83 -56 104 -75 91 -80 -11 -5 -7 -6 13 -6 35 2 117 -40 108 -55 -3 -6 -1 -7
5 -3 19 11 66 -20 97 -63 19 -29 39 -45 66 -53 22 -6 39 -14 39 -18 0 -16 -94
-172 -106 -177 -19 -7 -385 117 -379 128 4 5 -1 6 -9 3 -17 -6 -156 36 -156
48 0 4 -6 5 -14 2 -7 -3 -16 2 -19 10 -4 9 -12 16 -19 16 -9 0 -8 -3 2 -10 24
-16 2 -11 -32 6 -29 15 -30 18 -14 29 9 7 13 15 8 16 -12 5 186 279 201 279 5
0 59 -33 118 -72z m-3973 45 c27 -5 44 -21 90 -82 31 -42 69 -90 84 -107 23
-25 26 -33 16 -42 -19 -15 -266 50 -284 76 -7 11 -51 30 -108 47 -53 15 -96
31 -96 34 0 13 216 89 240 85 14 -2 40 -7 58 -11z m1870 -63 l79 -31 -56 -180
-56 -180 -50 7 c-27 3 -53 9 -57 13 -4 3 2 80 13 171 23 205 28 230 39 230 4
0 44 -14 88 -30z m652 -10 c-19 -36 -6 -50 49 -50 l51 0 -6 -32 c-13 -79 -27
-128 -38 -137 -24 -20 -105 45 -133 107 l-25 53 23 26 c26 28 81 65 87 58 2
-2 -2 -13 -8 -25z m-1208 4 c31 -5 39 -11 52 -44 16 -41 25 -45 119 -56 60 -7
75 -17 59 -37 -5 -7 -12 -21 -16 -31 -6 -17 -5 -17 10 -5 15 12 16 12 11 -6
-3 -11 -9 -51 -13 -89 l-7 -68 -41 5 c-22 3 -113 14 -201 23 -88 10 -161 19
-163 20 -2 1 8 66 22 145 15 79 26 147 26 152 0 8 41 5 142 -9z m3096 -29 c9
-6 23 -129 18 -151 -6 -23 -11 -26 -39 -20 -19 3 -45 20 -65 43 -36 41 -36 48
-2 128 l20 46 32 -22 c18 -12 34 -23 36 -24z m-1685 -31 c27 -9 47 -22 47 -30
0 -8 -21 -64 -46 -124 -45 -107 -52 -145 -26 -145 14 0 112 222 112 252 0 14
4 13 24 -6 20 -19 23 -29 19 -62 -5 -32 -3 -39 11 -39 10 0 21 12 27 29 l10
28 167 -53 c92 -30 181 -54 197 -54 17 0 92 9 167 22 l138 22 27 -21 c26 -19
28 -24 25 -87 -3 -60 -2 -66 16 -66 16 0 20 9 24 50 3 28 7 52 10 55 2 3 142
-41 311 -97 l306 -102 24 22 c13 12 45 60 71 107 26 47 52 87 57 91 5 3 36 -3
70 -12 59 -17 61 -18 55 -46 -10 -51 -58 -109 -116 -142 -53 -30 -59 -31 -170
-30 -63 1 -263 14 -445 29 -345 30 -466 33 -702 20 -142 -7 -143 -7 -143 14 0
27 -20 28 -27 1 -5 -17 -14 -20 -59 -20 -45 0 -69 8 -151 51 -54 28 -122 68
-150 89 l-53 38 30 5 c36 8 53 44 69 145 6 39 11 73 11 76 0 9 13 7 63 -10z
m-607 -86 c46 -45 86 -90 90 -100 3 -10 12 -18 19 -18 28 0 27 -5 -10 -167 -4
-16 -13 -23 -28 -23 -29 1 -268 48 -275 55 -5 5 72 269 91 313 6 12 15 22 20
22 5 0 47 -37 93 -82z m-1966 -100 l119 -32 5 -36 c11 -71 29 -430 22 -437 -6
-6 -191 42 -358 94 l-76 23 12 53 c7 28 28 81 48 117 22 39 45 102 58 158 16
66 26 92 37 92 8 0 68 -14 133 -32z m2250 -169 l75 -70 -100 6 c-115 7 -138
12 -132 28 2 7 10 42 17 79 l13 67 26 -20 c14 -10 60 -51 101 -90z"/>
<path d="M1962 5585 c-16 -34 -15 -72 1 -82 29 -19 240 -113 253 -113 24 0 75
81 72 114 -3 26 -13 36 -70 69 -54 30 -76 38 -108 35 l-41 -3 91 -50 c83 -46
106 -65 79 -65 -16 0 -51 20 -77 43 -21 19 -24 20 -39 5 -20 -21 -10 -48 17
-48 26 0 80 -27 80 -40 0 -6 -5 -10 -12 -10 -9 0 -203 86 -216 96 -2 1 4 16
12 33 21 39 20 41 -7 41 -16 0 -28 -9 -35 -25z"/>
</g>
</svg>
