<?xml version="1.0" encoding="iso-8859-1"?>
<!-- Generator: Adobe Illustrator 19.0.0, SVG Export Plug-In . SVG Version: 6.00 Build 0)  -->
<svg version="1.1" id="Layer_1" xmlns="http://www.w3.org/2000/svg" xmlns:xlink="http://www.w3.org/1999/xlink" x="0px" y="0px"
	 viewBox="0 0 504.123 504.123" style="enable-background:new 0 0 504.123 504.123;" xml:space="preserve">
<circle style="fill:#99A8C1;" cx="252.062" cy="252.062" r="252.062"/>
<path style="fill:#70869B;" d="M73.83,73.823c98.43-98.43,258.032-98.43,356.462,0c98.43,98.438,98.446,258.032,0,356.478"/>
<path style="fill:#1D2321;" d="M282.065,68.892h-61.314c-25.789,0-46.718,20.921-46.718,46.718v32.13
	c0,5.916,1.15,11.555,3.151,16.762c-35.493,15.675-61.204,61.55-61.204,115.759c0,45.371-5.443,67.907,21.843,76.753
	c2.741,26.419,10.555,78.218,19.771,78.218c8.704,0,16.171-46.206,19.275-73.602c7.341,0.11,15.573,0.016,24.765-0.26
	c3.088,27.364,10.563,73.862,19.298,73.862c11.485,0,20.803-80.502,20.803-91.995c0-1.418-0.142-2.796-0.417-4.143
	c1.276-12.39-0.969-31.342-0.969-60.227c0-8.184,0.181-16.156,0.417-23.851c18.519,12.422,37.951,23.095,42.85,18.204
	c8.468-8.476-29.578-60.463-42.827-75.808c-0.095-0.985-0.165-2.009-0.291-2.962h41.551c25.797,0,46.71-20.913,46.71-46.71v-32.13
	C328.767,89.813,307.862,68.892,282.065,68.892z"/>
<g>
	<path style="fill:#363D3B;" d="M282.065,68.892h-61.314c-25.789,0-46.718,20.921-46.718,46.718v32.13
		c0,5.916,1.15,11.555,3.151,16.762c-2.836,1.252-5.585,2.773-8.294,4.395L272.912,272.92c5.041,1.78,8.885,2.119,10.705,0.299
		c8.468-8.476-29.578-60.463-42.827-75.808c-0.095-0.985-0.165-2.009-0.291-2.962h41.551c25.797,0,46.71-20.913,46.71-46.71v-32.13
		C328.767,89.813,307.862,68.892,282.065,68.892z"/>
	<path style="fill:#363D3B;" d="M377.383,225.871h-74.216c-4.167,0-7.987,2.316-9.925,5.994c-1.922,3.686-1.654,8.137,0.709,11.563
		l32.193,46.655c2.087,3.033,5.522,4.836,9.208,4.836h42.031c6.199,0,11.209-5.018,11.209-11.193v-46.655
		C388.592,230.888,383.583,225.871,377.383,225.871z"/>
	<circle style="fill:#363D3B;" cx="351.232" cy="191.362" r="3.836"/>
	<circle style="fill:#363D3B;" cx="333.202" cy="183.524" r="3.836"/>
	<circle style="fill:#363D3B;" cx="341.331" cy="165.801" r="3.836"/>
	<circle style="fill:#363D3B;" cx="346.711" cy="178.412" r="3.836"/>
	<circle style="fill:#363D3B;" cx="323.261" cy="193.3" r="3.828"/>
	<circle style="fill:#363D3B;" cx="317.7" cy="206.454" r="3.828"/>
	<path style="fill:#363D3B;" d="M373.398,220.751l-8.058-12.768c0-5.057-4.104-9.129-9.129-9.129c-5.049,0-9.129,4.08-9.129,9.129
		v12.768H373.398z"/>
</g>
<g>
	<circle style="fill:#99A8C1;" cx="266.886" cy="142.446" r="7.223"/>
	<circle style="fill:#99A8C1;" cx="308.24" cy="142.446" r="7.223"/>
</g>
<g>
</g>
<g>
</g>
<g>
</g>
<g>
</g>
<g>
</g>
<g>
</g>
<g>
</g>
<g>
</g>
<g>
</g>
<g>
</g>
<g>
</g>
<g>
</g>
<g>
</g>
<g>
</g>
<g>
</g>
</svg>
